<?xml version="1.0" encoding="UTF-8" standalone="no"?>
<!-- Created with Inkscape (http://www.inkscape.org/) -->

<svg
   xmlns:dc="http://purl.org/dc/elements/1.1/"
   xmlns:cc="http://creativecommons.org/ns#"
   xmlns:rdf="http://www.w3.org/1999/02/22-rdf-syntax-ns#"
   xmlns:svg="http://www.w3.org/2000/svg"
   xmlns="http://www.w3.org/2000/svg"
   xmlns:xlink="http://www.w3.org/1999/xlink"
   xmlns:sodipodi="http://sodipodi.sourceforge.net/DTD/sodipodi-0.dtd"
   xmlns:inkscape="http://www.inkscape.org/namespaces/inkscape"
   width="26.5in"
   height="2.5in"
   viewBox="0 0 673.10001 63.500002"
   version="1.1"
   id="svg8"
   inkscape:version="0.92.3 (2405546, 2018-03-11)"
   sodipodi:docname="Borderland Professional Front Plate.svg">
  <defs
     id="defs2">
    <marker
       style="overflow:visible"
       refY="0"
       refX="0"
       orient="auto"
       id="DistanceX">
      <path
         id="path12"
         style="stroke:#000000;stroke-width:0.5"
         d="M 3,-3 -3,3 M 0,-5 V 5"
         inkscape:connector-curvature="0" />
    </marker>
    <pattern
       y="0"
       x="0"
       width="8"
       patternUnits="userSpaceOnUse"
       id="Hatch"
       height="8">
      <path
         id="path15"
         stroke-width="0.25"
         stroke="#000000"
         linecap="square"
         d="M8 4 l-4,4" />
      <path
         id="path17"
         stroke-width="0.25"
         stroke="#000000"
         linecap="square"
         d="M6 2 l-4,4" />
      <path
         id="path19"
         stroke-width="0.25"
         stroke="#000000"
         linecap="square"
         d="M4 0 l-4,4" />
    </pattern>
    <symbol
       id="*Model_Space" />
    <symbol
       id="*Paper_Space" />
    <symbol
       id="*Paper_Space0" />
    <symbol
       id="power_switches">
      <path
         id="path25"
         style="fill:none;stroke:#000000"
         d="m 1048.9149,891.3362 h 5.6832"
         inkscape:connector-curvature="0" />
      <path
         id="path27"
         style="fill:none;stroke:#000000"
         d="m 1048.9149,887.4962 a 23.52,23.52 0 1 0 5.6832,0"
         inkscape:connector-curvature="0" />
      <path
         id="path29"
         style="fill:none;stroke:#000000"
         d="m 1054.5981,891.3362 v -3.84"
         inkscape:connector-curvature="0" />
      <path
         id="path31"
         style="fill:none;stroke:#000000"
         d="m 1048.9149,887.4962 v 3.84"
         inkscape:connector-curvature="0" />
      <path
         id="path33"
         style="fill:none;stroke:#000000"
         d="m 952.91487,891.3362 h 5.6832"
         inkscape:connector-curvature="0" />
      <path
         id="path35"
         style="fill:none;stroke:#000000"
         d="m 952.91487,887.4962 a 23.52,23.52 0 1 0 5.6832,0"
         inkscape:connector-curvature="0" />
      <path
         id="path37"
         style="fill:none;stroke:#000000"
         d="m 958.59807,891.3362 v -3.84"
         inkscape:connector-curvature="0" />
      <path
         id="path39"
         style="fill:none;stroke:#000000"
         d="m 952.91487,887.4962 v 3.84"
         inkscape:connector-curvature="0" />
    </symbol>
    <clipPath
       clipPathUnits="userSpaceOnUse"
       id="clipPath4169">
      <path
         d="m 0,0 7197,0 0,11518 L 0,11518 0,0"
         id="path4171"
         inkscape:connector-curvature="0" />
    </clipPath>
    <clipPath
       clipPathUnits="userSpaceOnUse"
       id="clipPath5508">
      <path
         d="m 0,0 7197,0 0,11518 L 0,11518 0,0"
         id="path5510"
         inkscape:connector-curvature="0" />
    </clipPath>
  </defs>
  <sodipodi:namedview
     id="base"
     pagecolor="#ffffff"
     bordercolor="#666666"
     borderopacity="1.0"
     inkscape:pageopacity="0.0"
     inkscape:pageshadow="2"
     inkscape:zoom="0.76943522"
     inkscape:cx="1435.3351"
     inkscape:cy="100.21347"
     inkscape:document-units="mm"
     inkscape:current-layer="layer1"
     showgrid="false"
     units="in"
     inkscape:showpageshadow="false"
     showborder="true"
     inkscape:window-width="2630"
     inkscape:window-height="1337"
     inkscape:window-x="138"
     inkscape:window-y="83"
     inkscape:window-maximized="0" />
  <metadata
     id="metadata5">
    <rdf:RDF>
      <cc:Work
         rdf:about="">
        <dc:format>image/svg+xml</dc:format>
        <dc:type
           rdf:resource="http://purl.org/dc/dcmitype/StillImage" />
        <dc:title></dc:title>
      </cc:Work>
    </rdf:RDF>
  </metadata>
  <g
     inkscape:label="Layer 1"
     inkscape:groupmode="layer"
     id="layer1"
     transform="translate(0,-233.49998)">
    <g
       id="g114"
       inkscape:label="0"
       transform="matrix(-0.26458333,0,0,-0.26458333,865.35376,-5.55198)">
      <path
         id="path44"
         style="fill:none;stroke:#000000"
         d="m 2574.1284,-962.52348 a 12,12 0 1 0 -24,0 12,12 0 1 0 24,0 z"
         inkscape:connector-curvature="0" />
      <path
         id="path46"
         style="fill:none;stroke:#000000"
         d="m 2574.1284,-1083.4835 a 12,12 0 1 0 -24,0 12,12 0 1 0 24,0 z"
         inkscape:connector-curvature="0" />
      <path
         id="path48"
         style="fill:none;stroke:#000000"
         d="m 2574.1284,-1023.0035 a 12,12 0 1 0 -24,0 12,12 0 1 0 24,0 z"
         inkscape:connector-curvature="0" />
      <path
         id="path50"
         style="fill:none;stroke:#000000"
         d="m 2574.1284,-1023.0035 a 12,12 0 1 0 -24,0 12,12 0 1 0 24,0 z"
         inkscape:connector-curvature="0" />
      <path
         id="path52"
         style="fill:none;stroke:#000000"
         d="m 2574.1284,-1083.4835 a 12,12 0 1 0 -24,0 12,12 0 1 0 24,0 z"
         inkscape:connector-curvature="0" />
      <path
         id="path54"
         style="fill:none;stroke:#000000"
         d="m 2574.1284,-962.52348 a 12,12 0 1 0 -24,0 12,12 0 1 0 24,0 z"
         inkscape:connector-curvature="0" />
      <path
         id="path56"
         style="fill:none;stroke:#000000"
         d="m 3132.1284,-1071.0035 a 18,18 0 1 0 -36,0 18,18 0 1 0 36,0 z"
         inkscape:connector-curvature="0" />
      <path
         id="path58"
         style="fill:none;stroke:#000000"
         d="m 3012.1284,-1023.0035 a 18,18 0 1 0 -36,0 18,18 0 1 0 36,0 z"
         inkscape:connector-curvature="0" />
      <path
         id="path60"
         style="fill:none;stroke:#000000"
         d="m 2868.1284,-1023.0035 a 18,18 0 1 0 -36,0 18,18 0 1 0 36,0 z"
         inkscape:connector-curvature="0" />
      <path
         id="path62"
         style="fill:none;stroke:#000000"
         d="m 3132.1284,-975.00348 a 18,18 0 1 0 -36,0 18,18 0 1 0 36,0 z"
         inkscape:connector-curvature="0" />
      <path
         id="path64"
         style="fill:none;stroke:#000000"
         d="m 3132.1284,-975.00348 a 18,18 0 1 0 -36,0 18,18 0 1 0 36,0 z"
         inkscape:connector-curvature="0" />
      <path
         id="path66"
         style="fill:none;stroke:#000000"
         d="m 2868.1284,-1023.0035 a 18,18 0 1 0 -36,0 18,18 0 1 0 36,0 z"
         inkscape:connector-curvature="0" />
      <path
         id="path68"
         style="fill:none;stroke:#000000"
         d="m 3012.1284,-1023.0035 a 18,18 0 1 0 -36,0 18,18 0 1 0 36,0 z"
         inkscape:connector-curvature="0" />
      <path
         id="path70"
         style="fill:none;stroke:#000000"
         d="m 3132.1284,-1071.0035 a 18,18 0 1 0 -36,0 18,18 0 1 0 36,0 z"
         inkscape:connector-curvature="0" />
      <path
         id="path72"
         style="fill:none;stroke:#000000"
         d="m 2724.1284,-1023.0035 a 18,18 0 1 0 -36,0 18,18 0 1 0 36,0 z"
         inkscape:connector-curvature="0" />
      <path
         id="path74"
         style="fill:none;stroke:#000000"
         d="m 2724.1284,-1023.0035 a 18,18 0 1 0 -36,0 18,18 0 1 0 36,0 z"
         inkscape:connector-curvature="0" />
      <path
         id="path76"
         style="fill:none;stroke:#000000"
         d="m 2316.1284,-1023.0035 a 18,18 0 1 0 -36,0 18,18 0 1 0 36,0 z"
         inkscape:connector-curvature="0" />
      <path
         id="path78"
         style="fill:none;stroke:#000000"
         d="m 1884.1284,-1023.0035 a 18,18 0 1 0 -36,0 18,18 0 1 0 36,0 z"
         inkscape:connector-curvature="0" />
      <path
         id="path80"
         style="fill:none;stroke:#000000"
         d="m 1596.1284,-1023.0035 a 18,18 0 1 0 -36,0 18,18 0 1 0 36,0 z"
         inkscape:connector-curvature="0" />
      <path
         id="path82"
         style="fill:none;stroke:#000000"
         d="m 1740.1284,-1023.0035 a 18,18 0 1 0 -36,0 18,18 0 1 0 36,0 z"
         inkscape:connector-curvature="0" />
      <path
         id="path84"
         style="fill:none;stroke:#000000"
         d="m 2028.1284,-1023.0035 a 18,18 0 1 0 -36,0 18,18 0 1 0 36,0 z"
         inkscape:connector-curvature="0" />
      <path
         id="path86"
         style="fill:none;stroke:#000000"
         d="m 2172.1284,-1023.0035 a 18,18 0 1 0 -36,0 18,18 0 1 0 36,0 z"
         inkscape:connector-curvature="0" />
      <path
         id="path88"
         style="fill:none;stroke:#000000"
         d="m 2460.1284,-1023.0035 a 18,18 0 1 0 -36,0 18,18 0 1 0 36,0 z"
         inkscape:connector-curvature="0" />
      <path
         id="path90"
         style="fill:none;stroke:#000000"
         d="m 2460.1284,-1023.0035 a 18,18 0 1 0 -36,0 18,18 0 1 0 36,0 z"
         inkscape:connector-curvature="0" />
      <path
         id="path92"
         style="fill:none;stroke:#000000"
         d="m 2172.1284,-1023.0035 a 18,18 0 1 0 -36,0 18,18 0 1 0 36,0 z"
         inkscape:connector-curvature="0" />
      <path
         id="path94"
         style="fill:none;stroke:#000000"
         d="m 2028.1284,-1023.0035 a 18,18 0 1 0 -36,0 18,18 0 1 0 36,0 z"
         inkscape:connector-curvature="0" />
      <path
         id="path96"
         style="fill:none;stroke:#000000"
         d="m 1740.1284,-1023.0035 a 18,18 0 1 0 -36,0 18,18 0 1 0 36,0 z"
         inkscape:connector-curvature="0" />
      <path
         id="path98"
         style="fill:none;stroke:#000000"
         d="m 1596.1284,-1023.0035 a 18,18 0 1 0 -36,0 18,18 0 1 0 36,0 z"
         inkscape:connector-curvature="0" />
      <path
         id="path100"
         style="fill:none;stroke:#000000"
         d="m 1884.1284,-1023.0035 a 18,18 0 1 0 -36,0 18,18 0 1 0 36,0 z"
         inkscape:connector-curvature="0" />
      <path
         id="path102"
         style="fill:none;stroke:#000000"
         d="m 2316.1284,-1023.0035 a 18,18 0 1 0 -36,0 18,18 0 1 0 36,0 z"
         inkscape:connector-curvature="0" />
      <path
         id="path104"
         style="fill:none;stroke:#000000"
         d="m 1077.1044,-1023.0035 a 14.976,14.976 0 1 0 -29.952,0 14.976,14.976 0 1 0 29.952,0 z"
         inkscape:connector-curvature="0" />
      <path
         id="path106"
         style="fill:none;stroke:#000000"
         d="m 1077.1044,-1023.0035 a 14.976,14.976 0 1 0 -29.952,0 14.976,14.976 0 1 0 29.952,0 z"
         inkscape:connector-curvature="0" />
      <path
         id="path108"
         style="fill:none;stroke:#000000"
         d="M 3270.1284,-903.00348 H 726.12842 V -1143.0035 H 3270.1284 Z"
         inkscape:connector-curvature="0" />
      <path
         id="path110"
         style="fill:none;stroke:#000000"
         d="m 1452.1284,-1023.0035 a 18,18 0 1 0 -36,0 18,18 0 1 0 36,0 z"
         inkscape:connector-curvature="0" />
      <use
         id="use112"
         xlink:href="#power_switches"
         transform="translate(-85.628053,-1933.8474)"
         x="0"
         y="0"
         width="100%"
         height="100%" />
    </g>
  </g>
</svg>
